<svg width="20" height="20" viewBox="0 0 20 20" fill="none" xmlns="http://www.w3.org/2000/svg">
<path d="M9.83194 4.02246C8.42689 4.0473 7.08638 4.61668 6.09294 5.61059C5.0995 6.60449 4.53075 7.94527 4.50657 9.35033C4.48923 10.3987 4.78968 11.4278 5.36839 12.3022C5.94711 13.1766 6.77697 13.8553 7.74879 14.2491C7.773 14.2583 7.79869 14.2631 7.82461 14.2632H9.01118C9.06642 14.2632 9.11941 14.2413 9.15848 14.2022C9.19754 14.1632 9.21949 14.1102 9.21949 14.0549V11.3268C9.21919 11.2715 9.19702 11.2184 9.15783 11.1793L7.75879 9.78196C7.65725 9.66423 7.60407 9.51243 7.60995 9.35708C7.61583 9.20173 7.68032 9.05437 7.79046 8.94466C7.9006 8.83494 8.0482 8.77101 8.20357 8.76573C8.35894 8.76045 8.51054 8.81421 8.62788 8.9162L9.68445 9.97277C9.70374 9.99227 9.72671 10.0078 9.75203 10.0183C9.77735 10.0289 9.8045 10.0343 9.83194 10.0343C9.85937 10.0343 9.88653 10.0289 9.91184 10.0183C9.93716 10.0078 9.96013 9.99227 9.97942 9.97277L11.036 8.9162C11.1526 8.80778 11.3067 8.74881 11.4659 8.7517C11.6251 8.7546 11.777 8.81913 11.8896 8.93172C12.0022 9.0443 12.0667 9.19617 12.0696 9.35537C12.0725 9.51457 12.0135 9.66868 11.9051 9.78529L10.5077 11.1827C10.4685 11.2218 10.4464 11.2748 10.4461 11.3302V14.0582C10.4461 14.1135 10.468 14.1665 10.5071 14.2056C10.5461 14.2446 10.5991 14.2666 10.6544 14.2666H11.8418C11.8674 14.2665 11.8929 14.2617 11.9168 14.2524C12.8883 13.8584 13.7178 13.1796 14.2962 12.3052C14.8746 11.4308 15.1748 10.4019 15.1573 9.35366C15.134 7.94803 14.5656 6.6064 13.5721 5.61179C12.5785 4.61717 11.2375 4.04733 9.83194 4.02246Z" fill="#2F3135"/>
<path d="M9.0127 0.819095V2.38312C9.0127 2.60036 9.09899 2.8087 9.2526 2.96231C9.40621 3.11592 9.61455 3.20222 9.83179 3.20222C10.049 3.20222 10.2574 3.11592 10.411 2.96231C10.5646 2.8087 10.6509 2.60036 10.6509 2.38312V0.819095C10.6509 0.601857 10.5646 0.393517 10.411 0.239907C10.2574 0.0862973 10.049 0 9.83179 0C9.61455 0 9.40621 0.0862973 9.2526 0.239907C9.09899 0.393517 9.0127 0.601857 9.0127 0.819095Z" fill="#2F3135"/>
<path d="M2.69643 8.11816H0.819095C0.601858 8.11816 0.393518 8.20446 0.239907 8.35807C0.0862973 8.51168 0 8.72002 0 8.93726C0 9.1545 0.0862973 9.36284 0.239907 9.51645C0.393518 9.67006 0.601858 9.75635 0.819095 9.75635H2.69643C2.91367 9.75635 3.12201 9.67006 3.27562 9.51645C3.42923 9.36284 3.51553 9.1545 3.51553 8.93726C3.51553 8.72002 3.42923 8.51168 3.27562 8.35807C3.12201 8.20446 2.91367 8.11816 2.69643 8.11816Z" fill="#2F3135"/>
<path d="M5.08164 3.85252L3.52094 2.28849C3.36653 2.13886 3.15949 2.05595 2.94449 2.05764C2.72949 2.05933 2.52378 2.14549 2.37174 2.29752C2.21971 2.44956 2.13355 2.65527 2.13186 2.87027C2.13017 3.08527 2.21308 3.29232 2.36271 3.44672L3.92674 5.01075C4.08298 5.15004 4.28663 5.22422 4.49585 5.21807C4.70508 5.21192 4.90401 5.1259 5.05181 4.97768C5.1996 4.82946 5.28505 4.63028 5.29059 4.42103C5.29614 4.21179 5.22137 4.00836 5.08164 3.85252Z" fill="#2F3135"/>
<path d="M18.8449 8.11816H16.9675C16.7503 8.11816 16.542 8.20446 16.3883 8.35807C16.2347 8.51168 16.1484 8.72002 16.1484 8.93726C16.1484 9.1545 16.2347 9.36284 16.3883 9.51645C16.542 9.67006 16.7503 9.75635 16.9675 9.75635H18.8449C19.0621 9.75635 19.2704 9.67006 19.4241 9.51645C19.5777 9.36284 19.664 9.1545 19.664 8.93726C19.664 8.72002 19.5777 8.51168 19.4241 8.35807C19.2704 8.20446 19.0621 8.11816 18.8449 8.11816Z" fill="#2F3135"/>
<path d="M17.3 2.28818C17.1464 2.13461 16.9381 2.04834 16.7209 2.04834C16.5037 2.04834 16.2954 2.13461 16.1418 2.28818L14.5811 3.85221C14.5031 3.92781 14.4409 4.01819 14.3981 4.11807C14.3554 4.21795 14.3329 4.32534 14.3321 4.43399C14.3312 4.54263 14.352 4.65037 14.3932 4.75091C14.4343 4.85145 14.4951 4.94279 14.5719 5.01962C14.6488 5.09644 14.7401 5.15722 14.8407 5.1984C14.9412 5.23959 15.0489 5.26035 15.1576 5.2595C15.2662 5.25865 15.3736 5.23619 15.4735 5.19343C15.5734 5.15067 15.6637 5.08846 15.7394 5.01044L17.3034 3.44641C17.4565 3.29236 17.5422 3.0838 17.5416 2.8666C17.5409 2.6494 17.4541 2.44134 17.3 2.28818Z" fill="#2F3135"/>
<path d="M11.8793 15.2793H7.78296C7.56572 15.2793 7.35738 15.3656 7.20377 15.5192C7.05016 15.6728 6.96387 15.8812 6.96387 16.0984C6.96387 16.3156 7.05016 16.524 7.20377 16.6776C7.35738 16.8312 7.56572 16.9175 7.78296 16.9175H11.8793C12.0965 16.9175 12.3048 16.8312 12.4585 16.6776C12.6121 16.524 12.6984 16.3156 12.6984 16.0984C12.6984 15.8812 12.6121 15.6728 12.4585 15.5192C12.3048 15.3656 12.0965 15.2793 11.8793 15.2793Z" fill="#2F3135"/>
<path d="M11.8793 17.5405H7.78296C7.56572 17.5405 7.35738 17.6268 7.20377 17.7804C7.05016 17.934 6.96387 18.1424 6.96387 18.3596C6.96387 18.5769 7.05016 18.7852 7.20377 18.9388C7.35738 19.0924 7.56572 19.1787 7.78296 19.1787H8.82454C8.8726 19.1786 8.91923 19.1951 8.95647 19.2255C8.9937 19.2559 9.01923 19.2982 9.02869 19.3454C9.06656 19.5302 9.16709 19.6963 9.3133 19.8156C9.45951 19.9349 9.64242 20.0001 9.83112 20.0001C10.0198 20.0001 10.2027 19.9349 10.3489 19.8156C10.4951 19.6963 10.5957 19.5302 10.6335 19.3454C10.6432 19.2983 10.6687 19.256 10.7059 19.2257C10.7431 19.1953 10.7897 19.1787 10.8377 19.1787H11.8793C12.0965 19.1787 12.3048 19.0924 12.4585 18.9388C12.6121 18.7852 12.6984 18.5769 12.6984 18.3596C12.6984 18.1424 12.6121 17.934 12.4585 17.7804C12.3048 17.6268 12.0965 17.5405 11.8793 17.5405Z" fill="#2F3135"/>
</svg>
