<svg width="108" height="48" viewBox="0 0 108 48" fill="none" xmlns="http://www.w3.org/2000/svg">
<path d="M48.0324 41.1205C45.9438 41.1205 44.1494 40.7027 42.6494 39.8673C41.1683 39.0128 40.0291 37.8166 39.2316 36.2786C38.4341 34.7216 38.0353 32.8892 38.0353 30.7816C38.0353 29.2056 38.2632 27.791 38.7189 26.5378C39.1746 25.2656 39.8297 24.1833 40.6841 23.2909C41.5386 22.3795 42.5829 21.6864 43.8171 21.2117C45.0703 20.718 46.4754 20.4712 48.0324 20.4712C49.0768 20.4712 50.1021 20.6041 51.1085 20.8699C52.1148 21.1358 52.9978 21.5155 53.7573 22.0092C54.156 22.256 54.4218 22.5599 54.5548 22.9206C54.6877 23.2624 54.7162 23.6042 54.6402 23.946C54.5643 24.2688 54.4029 24.5441 54.156 24.7719C53.9282 24.9998 53.6338 25.1327 53.2731 25.1707C52.9313 25.1897 52.5515 25.0662 52.1338 24.8004C51.5452 24.4207 50.9091 24.1453 50.2255 23.9744C49.542 23.8036 48.8489 23.7181 48.1464 23.7181C46.7982 23.7181 45.659 23.9934 44.7286 24.5441C43.7981 25.0947 43.0956 25.8922 42.6209 26.9365C42.1462 27.9809 41.9089 29.2626 41.9089 30.7816C41.9089 32.2816 42.1462 33.5633 42.6209 34.6266C43.0956 35.6899 43.7981 36.4969 44.7286 37.0476C45.659 37.5982 46.7982 37.8735 48.1464 37.8735C48.8679 37.8735 49.5799 37.7881 50.2825 37.6172C50.985 37.4273 51.6496 37.1425 52.2762 36.7628C52.6939 36.5159 53.0642 36.4115 53.387 36.4495C53.7288 36.4684 54.0136 36.5824 54.2415 36.7912C54.4693 37.0001 54.6212 37.2659 54.6972 37.5887C54.7731 37.8925 54.7541 38.2153 54.6402 38.5571C54.5263 38.8799 54.2984 39.1647 53.9566 39.4116C53.1971 39.9622 52.2857 40.3894 51.2224 40.6932C50.1781 40.9781 49.1147 41.1205 48.0324 41.1205Z" fill="#17191B"/>
<path d="M61.1821 41.1205C59.6061 41.1205 58.4194 40.6742 57.6219 39.7818C56.8244 38.8704 56.4257 37.5413 56.4257 35.7944V22.3225C56.4257 21.7339 56.5776 21.2877 56.8814 20.9839C57.1852 20.6801 57.6219 20.5282 58.1915 20.5282C58.7612 20.5282 59.1979 20.6801 59.5017 20.9839C59.8245 21.2877 59.9859 21.7339 59.9859 22.3225V35.6235C59.9859 36.4969 60.1663 37.1425 60.527 37.5602C60.9068 37.978 61.4384 38.1868 62.122 38.1868C62.2739 38.1868 62.4163 38.1868 62.5492 38.1868C62.6821 38.1679 62.8151 38.1489 62.948 38.1299C63.2138 38.0919 63.3942 38.1679 63.4891 38.3577C63.5841 38.5286 63.6315 38.8894 63.6315 39.44C63.6315 39.9147 63.5366 40.285 63.3467 40.5508C63.1568 40.8167 62.8435 40.9781 62.4068 41.035C62.2169 41.054 62.0176 41.073 61.8087 41.092C61.5998 41.111 61.391 41.1205 61.1821 41.1205Z" fill="#17191B"/>
<path d="M70.4516 41.1205C69.0085 41.1205 67.7553 40.8262 66.692 40.2375C65.6287 39.6489 64.8027 38.8134 64.2141 37.7311C63.6255 36.6298 63.3311 35.3387 63.3311 33.8576C63.3311 32.7373 63.4925 31.7405 63.8153 30.867C64.1571 29.9746 64.6413 29.2151 65.2679 28.5885C65.8945 27.9429 66.6445 27.4587 67.518 27.1359C68.3914 26.7941 69.3693 26.6233 70.4516 26.6233C71.8947 26.6233 73.1479 26.9176 74.2112 27.5062C75.2745 28.0948 76.1005 28.9303 76.6891 30.0126C77.2777 31.0949 77.572 32.3766 77.572 33.8576C77.572 34.9779 77.4011 35.9843 77.0593 36.8767C76.7366 37.7691 76.2619 38.5381 75.6353 39.1837C75.0087 39.8103 74.2586 40.2945 73.3852 40.6363C72.5118 40.9591 71.5339 41.1205 70.4516 41.1205ZM70.4516 38.4147C71.1541 38.4147 71.7712 38.2438 72.3029 37.902C72.8346 37.5602 73.2428 37.0571 73.5276 36.3925C73.8314 35.7089 73.9833 34.864 73.9833 33.8576C73.9833 32.3386 73.6605 31.2088 73.0149 30.4683C72.3694 29.7088 71.5149 29.329 70.4516 29.329C69.749 29.329 69.1319 29.4999 68.6003 29.8417C68.0686 30.1645 67.6509 30.6677 67.3471 31.3512C67.0623 32.0158 66.9198 32.8513 66.9198 33.8576C66.9198 35.3577 67.2426 36.4969 67.8882 37.2754C68.5338 38.0349 69.3883 38.4147 70.4516 38.4147Z" fill="#17191B"/>
<path d="M84.2701 41.1205C83.1119 41.1205 82.153 40.9116 81.3935 40.4939C80.634 40.0571 80.0643 39.4116 79.6846 38.5571C79.3238 37.7027 79.1434 36.6393 79.1434 35.3671V28.4746C79.1434 27.867 79.2953 27.4207 79.5991 27.1359C79.9029 26.8321 80.3396 26.6802 80.9093 26.6802C81.4789 26.6802 81.9156 26.8321 82.2194 27.1359C82.5422 27.4207 82.7036 27.867 82.7036 28.4746V35.4241C82.7036 36.4115 82.903 37.1425 83.3017 37.6172C83.7005 38.0919 84.3366 38.3293 85.21 38.3293C86.1594 38.3293 86.9379 38.0065 87.5455 37.3609C88.1531 36.6963 88.4569 35.8229 88.4569 34.7405V28.4746C88.4569 27.867 88.6088 27.4207 88.9127 27.1359C89.2165 26.8321 89.6532 26.6802 90.2228 26.6802C90.7924 26.6802 91.2292 26.8321 91.533 27.1359C91.8558 27.4207 92.0172 27.867 92.0172 28.4746V39.2407C92.0172 40.4559 91.438 41.0635 90.2798 41.0635C89.7291 41.0635 89.3019 40.9116 88.9981 40.6078C88.6943 40.285 88.5424 39.8293 88.5424 39.2407V37.0761L88.9411 37.9305C88.5424 38.9558 87.9348 39.7438 87.1183 40.2945C86.3208 40.8451 85.3714 41.1205 84.2701 41.1205Z" fill="#17191B"/>
<path d="M99.7956 41.1205C98.5804 41.1205 97.5075 40.8262 96.5771 40.2375C95.6657 39.6489 94.9537 38.8134 94.441 37.7311C93.9283 36.6298 93.672 35.3387 93.672 33.8576C93.672 32.3576 93.9283 31.0759 94.441 30.0126C94.9537 28.9303 95.6657 28.0948 96.5771 27.5062C97.5075 26.9176 98.5804 26.6233 99.7956 26.6233C100.954 26.6233 101.96 26.9081 102.815 27.4777C103.688 28.0473 104.277 28.7974 104.581 29.7278H104.267V22.3225C104.267 21.7339 104.419 21.2877 104.723 20.9839C105.027 20.6801 105.463 20.5282 106.033 20.5282C106.603 20.5282 107.039 20.6801 107.343 20.9839C107.666 21.2877 107.827 21.7339 107.827 22.3225V39.2407C107.827 39.8293 107.676 40.285 107.372 40.6078C107.068 40.9116 106.631 41.0635 106.062 41.0635C105.492 41.0635 105.055 40.9116 104.751 40.6078C104.448 40.285 104.296 39.8293 104.296 39.2407V37.0191L104.609 37.8735C104.324 38.8609 103.745 39.6489 102.872 40.2375C101.998 40.8262 100.973 41.1205 99.7956 41.1205ZM100.792 38.4147C101.495 38.4147 102.112 38.2438 102.644 37.902C103.175 37.5602 103.584 37.0571 103.868 36.3925C104.172 35.7089 104.324 34.864 104.324 33.8576C104.324 32.3386 104.001 31.2088 103.356 30.4683C102.71 29.7088 101.856 29.329 100.792 29.329C100.09 29.329 99.4728 29.4999 98.9411 29.8417C98.4095 30.1645 97.9917 30.6677 97.6879 31.3512C97.4031 32.0158 97.2607 32.8513 97.2607 33.8576C97.2607 35.3577 97.5835 36.4969 98.2291 37.2754C98.8747 38.0349 99.7291 38.4147 100.792 38.4147Z" fill="#17191B"/>
<path fill-rule="evenodd"  d="M14.9247 36.7646C14.9247 36.7646 14.9247 36.7646 14.9246 36.7646V16.2118L14.9247 16.2118V36.7646ZM15.5797 1.52659C14.7999 1.88824 14.2307 2.62085 14.0952 3.50148C14.0647 3.69924 14.0647 3.93544 14.0647 4.40784V13.7646C14.0647 14.1552 14.0647 14.3843 14.0819 14.5637V36.876C14.0819 38.6789 15.4954 39.98 17.1859 39.98C18.9517 39.98 20.3275 38.6789 20.3275 36.876V27.718C20.3275 26.3147 20.7312 25.3039 21.3399 24.6514C21.9436 24.0043 22.8282 23.6237 23.9696 23.6237C25.1393 23.6237 25.9515 23.9906 26.4838 24.5955C27.0305 25.2167 27.3856 26.2066 27.3856 27.6426V36.876C27.3856 36.9922 27.3913 37.1063 27.4024 37.2181V41.7052C25.5279 42.4372 23.4676 42.8431 21.2907 42.8431C12.2089 42.8431 5.15697 35.7788 5.15697 27.4407C5.15697 24.4342 6.07381 21.5933 7.67207 19.1895C8.34431 18.1784 8.44674 16.8523 7.76304 15.8489C6.82133 14.4669 4.84217 14.2822 3.85824 15.6344C1.42716 18.9755 0 23.0471 0 27.4407C0 38.7953 9.53218 48.0001 21.2907 48.0001C25.4475 48.0001 29.326 46.8498 32.6035 44.8608C33.2137 44.4905 33.5625 43.8163 33.5625 43.1025C33.5625 43.0795 33.5622 43.0566 33.5615 43.0339C33.5815 42.9035 33.5918 42.77 33.5918 42.634V37.4C33.6177 37.2306 33.6311 37.0557 33.6311 36.876V26.2482C33.6311 23.7807 32.9479 21.6543 31.5647 20.136C30.1716 18.6069 28.1576 17.7927 25.7032 17.7927C23.3 17.7927 21.607 18.6642 20.3275 19.8456V13.5099C20.3275 13.4047 20.3223 13.3007 20.3123 13.1981V5.92042C21.3081 5.73451 22.3352 5.63731 23.3849 5.63731C29.8334 5.63731 35.4252 9.30537 38.1876 14.6688C38.4482 15.1747 38.7924 15.636 39.2323 15.997C41.7036 18.0253 45.0492 16.1545 43.75 13.2333C40.2823 5.43653 32.4685 0 23.3849 0C20.8873 0 18.4857 0.411024 16.244 1.16912C15.9982 1.25225 15.7754 1.3742 15.5797 1.52659ZM28.2283 34.363L28.2282 34.363V27.6426C28.2282 26.702 28.0885 25.8874 27.8193 25.2082C28.0886 25.8875 28.2283 26.702 28.2283 27.6427V34.363ZM20.3275 21.0443C21.5576 19.6783 23.1938 18.6354 25.7032 18.6354C26.7673 18.6354 27.7228 18.8002 28.5621 19.1127C27.7228 18.8003 26.7673 18.6355 25.7033 18.6355C22.5752 18.6355 20.8039 20.256 19.4849 22.1027V22.1025C19.7457 21.7373 20.0243 21.381 20.3275 21.0443Z" fill="#11438F"/>
</svg>
