<svg width="11" height="11" viewBox="0 0 11 11" fill="none" xmlns="http://www.w3.org/2000/svg">
<path d="M5.84645 6.88316L3.77145 7.25666L4.11729 5.154L8.08052 1.20459C8.14482 1.13976 8.22132 1.08831 8.30561 1.05319C8.38989 1.01808 8.4803 1 8.57161 1C8.66291 1 8.75332 1.01808 8.8376 1.05319C8.92189 1.08831 8.99839 1.13976 9.06269 1.20459L9.79585 1.93776C9.86068 2.00206 9.91214 2.07856 9.94725 2.16284C9.98237 2.24713 10.0004 2.33753 10.0004 2.42884C10.0004 2.52015 9.98237 2.61055 9.94725 2.69484C9.91214 2.77912 9.86068 2.85562 9.79585 2.91992L5.84645 6.88316Z" stroke="#11438F" stroke-linecap="round" stroke-linejoin="round"/>
<path d="M8.95893 7.22899V9.30398C8.95893 9.48742 8.88606 9.66335 8.75635 9.79306C8.62664 9.92278 8.45071 9.99565 8.26727 9.99565H1.69646C1.51302 9.99565 1.33709 9.92278 1.20738 9.79306C1.07766 9.66335 1.00479 9.48742 1.00479 9.30398V2.73317C1.00479 2.54973 1.07766 2.3738 1.20738 2.24409C1.33709 2.11438 1.51302 2.0415 1.69646 2.0415H3.77145" stroke="#11438F" stroke-linecap="round" stroke-linejoin="round"/>
</svg>
