<svg width="20" height="19" viewBox="0 0 20 19" fill="none" xmlns="http://www.w3.org/2000/svg">
<path fill-rule="evenodd" clip-rule="evenodd" d="M0.625 1.0625C0.625 0.544733 1.04473 0.125 1.5625 0.125H16.1198C16.4794 0.125 16.7708 0.416481 16.7708 0.776042V2.20833C16.7708 2.49598 16.5376 2.72917 16.25 2.72917C15.9624 2.72917 15.7292 2.49598 15.7292 2.20833V1.55729C15.7292 1.34156 15.5543 1.16667 15.3385 1.16667H2.29167C1.94649 1.16667 1.66667 1.44649 1.66667 1.79167V12.5208C1.66667 12.866 1.94649 13.1458 2.29167 13.1458H12.2849C12.5725 13.1458 12.8057 13.379 12.8057 13.6667C12.8057 13.9543 12.5725 14.1875 12.2849 14.1875H1.25C0.904823 14.1875 0.625 13.9077 0.625 13.5625V1.0625ZM16.25 6.89583C16.6644 6.89583 17.0618 6.73121 17.3549 6.43819C17.6479 6.14516 17.8125 5.74773 17.8125 5.33333C17.8125 4.91893 17.6479 4.5215 17.3549 4.22848C17.0618 3.93545 16.6644 3.77083 16.25 3.77083C15.8356 3.77083 15.4382 3.93545 15.1451 4.22848C14.8521 4.5215 14.6875 4.91893 14.6875 5.33333C14.6875 5.74773 14.8521 6.14516 15.1451 6.43819C15.4382 6.73121 15.8356 6.89583 16.25 6.89583ZM17.3078 7.94271C17.9844 7.94271 18.5198 8.24688 18.8703 8.71667C19.1979 9.15677 19.3365 9.70104 19.3677 10.2036C19.3983 10.7192 19.3281 11.2358 19.1609 11.7245C19.0047 12.1776 18.7406 12.6464 18.3333 12.9677V18.0938C18.3337 18.29 18.2602 18.4793 18.1274 18.6238C17.9946 18.7684 17.8122 18.8576 17.6166 18.8738C17.421 18.89 17.2264 18.832 17.0717 18.7113C16.9169 18.5906 16.8132 18.4161 16.7813 18.2224L16.1094 14.1875H15.9542L15.1948 18.2375C15.1587 18.4286 15.0527 18.5995 14.8973 18.7165C14.742 18.8336 14.5486 18.8886 14.3549 18.8706C14.1612 18.8526 13.9812 18.763 13.8501 18.6194C13.7189 18.4757 13.6461 18.2883 13.6458 18.0938V10.663C13.5417 10.8217 13.4389 10.9812 13.3375 11.1417L13.2969 11.2057L13.2865 11.2224L13.2839 11.2271C13.2137 11.3398 13.1159 11.4327 12.9998 11.4972C12.8837 11.5616 12.7531 11.5954 12.6203 11.5953H10.0161C9.80895 11.5953 9.61023 11.513 9.46372 11.3665C9.31721 11.22 9.2349 11.0213 9.2349 10.8141C9.2349 10.6069 9.31721 10.4081 9.46372 10.2616C9.61023 10.1151 9.80895 10.0328 10.0161 10.0328H12.1917C12.3182 9.83698 12.4849 9.58281 12.6599 9.32761C12.8422 9.06146 13.0432 8.77969 13.2224 8.55886C13.3094 8.45104 13.4068 8.33854 13.5047 8.24636C13.5526 8.20104 13.6193 8.14219 13.7005 8.0901C13.8439 7.99599 14.0113 7.94501 14.1828 7.94323L17.3078 7.94271Z" fill="#11438F"/>
</svg>
